<?xml version="1.0" encoding="utf-8"?>
<!-- Generator: Adobe Illustrator 17.1.0, SVG Export Plug-In . SVG Version: 6.00 Build 0)  -->
<!DOCTYPE svg PUBLIC "-//W3C//DTD SVG 1.1//EN" "http://www.w3.org/Graphics/SVG/1.1/DTD/svg11.dtd">
<svg version="1.1" id="Layer_1" xmlns="http://www.w3.org/2000/svg" xmlns:xlink="http://www.w3.org/1999/xlink" x="0px" y="0px"
	 viewBox="0 0 400 400" enable-background="new 0 0 400 400" xml:space="preserve">
<path fill-rule="evenodd" clip-rule="evenodd" fill="#FFFFFF" d="M200.5,367.6c-92.2,0-167.2-75-167.2-167.2s75-167.2,167.2-167.2
	s167.2,75,167.2,167.2S292.7,367.6,200.5,367.6z M341.5,223.3c-4.9-1.5-44.2-13.3-88.9-6.1c18.7,51.3,26.3,93.1,27.7,101.8
	C312.3,297.4,335.1,263,341.5,223.3z M256.3,332.1c-2.1-12.5-10.4-56.2-30.5-108.3c-0.3,0.1-0.6,0.2-0.9,0.3
	c-80.5,28.1-109.4,83.9-112,89.2c24.2,18.9,54.6,30.1,87.6,30.1C220.3,343.4,239.2,339.4,256.3,332.1z M94.5,296.1
	c3.2-5.5,42.4-70.4,116.1-94.2c1.9-0.6,3.7-1.2,5.6-1.7c-3.6-8.1-7.5-16.2-11.6-24.2c-71.3,21.3-140.5,20.4-146.7,20.3
	c0,1.4-0.1,2.9-0.1,4.4C57.7,237.3,71.6,270.8,94.5,296.1z M60.8,171.4c6.4,0.1,65.2,0.3,132-17.4c-23.7-42.1-49.2-77.4-52.9-82.6
	C99.9,90.3,70,127.1,60.8,171.4z M167.1,61.8c3.9,5.3,29.9,40.6,53.3,83.6c50.8-19,72.3-47.9,74.8-51.6c-25.2-22.4-58.4-36-94.6-36
	C189,57.9,177.8,59.3,167.1,61.8z M311,110.4c-3,4.1-26.9,34.7-79.7,56.3c3.3,6.8,6.5,13.7,9.5,20.7c1.1,2.5,2.1,4.9,3.1,7.4
	c47.5-6,94.7,3.6,99.4,4.6C343,165.6,330.9,134.7,311,110.4z"/>
</svg>
