<?xml version="1.0" encoding="utf-8"?>
<!-- Generator: Adobe Illustrator 17.1.0, SVG Export Plug-In . SVG Version: 6.00 Build 0)  -->
<!DOCTYPE svg PUBLIC "-//W3C//DTD SVG 1.1//EN" "http://www.w3.org/Graphics/SVG/1.1/DTD/svg11.dtd">
<svg version="1.1" id="Layer_1" xmlns="http://www.w3.org/2000/svg" xmlns:xlink="http://www.w3.org/1999/xlink" x="0px" y="0px"
	 viewBox="0 0 512 512" enable-background="new 0 0 512 512" xml:space="preserve">
<path fill="#FFFFFF" d="M476,366c0,9.6-2.7,18.6-7.1,26.5L330,237l137.4-120.2c5.3,8.5,8.6,18.4,8.6,29.2V366z M256,265.2
	L447.2,97.9c-7.8-4.3-16.7-6.9-26.2-6.9H91c-9.5,0-18.4,2.6-26.2,6.9L256,265.2z M309.3,255.1l-44.3,38.8c-2.6,2.3-5.8,3.4-9.1,3.4
	c-3.2,0-6.5-1.1-9.1-3.4l-44.3-38.8L62,412.5c8.4,5.3,18.3,8.5,29,8.5h330c10.7,0,20.6-3.2,29-8.5L309.3,255.1z M44.6,116.8
	c-5.3,8.5-8.6,18.4-8.6,29.2v220c0,9.6,2.7,18.6,7.1,26.5L182,237L44.6,116.8z"/>
</svg>
