<?xml version="1.0" encoding="utf-8"?>
<!-- Generator: Adobe Illustrator 17.1.0, SVG Export Plug-In . SVG Version: 6.00 Build 0)  -->
<!DOCTYPE svg PUBLIC "-//W3C//DTD SVG 1.1//EN" "http://www.w3.org/Graphics/SVG/1.1/DTD/svg11.dtd">
<svg version="1.1" id="Layer_1" xmlns="http://www.w3.org/2000/svg" xmlns:xlink="http://www.w3.org/1999/xlink" x="0px" y="0px"
	 viewBox="0 0 400 400" enable-background="new 0 0 400 400" xml:space="preserve">
<g id="Layer_1_1_">
	<path fill="#FFFFFF" d="M120.6,46.6C9.2,66.5-27.9,192.3,60.7,249.9c4.9,3.1,4.9,2.8-2.4,24.5L52,293l22.4-12l22.4-12l11.9,2.9
		c12.5,3.1,28.4,5.3,39.1,5.3h6.4l-2.2-8.4c-17.5-64.3,42.9-128,121.4-128h10.6l-2.2-7.6C264.7,72.8,191.9,33.9,120.6,46.6z
		 M110.9,102.9c11.8,8,12.5,25.2,1.2,32.6c-18.4,12-39.9-9.1-27.5-27.2C90,100.2,103,97.6,110.9,102.9z M205.7,102.9
		c19.4,13.1,4.9,43.2-16.9,34.9c-15.7-6-17.6-27.6-2.9-35.4C191.7,99.3,200.7,99.5,205.7,102.9z M248.6,150.5
		c-55.2,10.1-93.4,51.9-91.2,100c2.9,64.4,78.4,108.8,150.9,88.9l8.6-2.3l18,9.7c9.9,5.4,18.3,9.4,18.5,8.9
		c0.2-0.6-1.7-7.5-4.3-15.5c-5.8-17.8-5.9-16.5,1.9-22.1C438.1,255.7,361.6,130.1,248.6,150.5z M246.4,202.5
		c4.9,3.2,7.4,11.3,5.3,17.2c-4.4,12.6-23.2,13.5-28.3,1.4C217.6,207.1,233.6,194.1,246.4,202.5z M323.7,203.8
		c7.6,7.3,6.4,19.7-2.5,24.3c-13.6,6.9-28-6.9-20.9-20.2C304.8,199.3,316.7,197.3,323.7,203.8z"/>
</g>
</svg>
