<?xml version="1.0" encoding="utf-8"?>
<!-- Generator: Adobe Illustrator 17.1.0, SVG Export Plug-In . SVG Version: 6.00 Build 0)  -->
<!DOCTYPE svg PUBLIC "-//W3C//DTD SVG 1.1//EN" "http://www.w3.org/Graphics/SVG/1.1/DTD/svg11.dtd">
<svg version="1.1" id="Layer_1" xmlns="http://www.w3.org/2000/svg" xmlns:xlink="http://www.w3.org/1999/xlink" x="0px" y="0px"
	 viewBox="0 0 300 300" enable-background="new 0 0 300 300" xml:space="preserve">
<path fill="#FFFFFF" d="M196.8,40c-8.7,3.8-10.6,12.8-4.3,19.1c3.1,3.1,6,3.6,18.6,3.6c17.7,0,29.6,4.7,38.6,15.1
	c11,12.4,12.3,16.2,12.3,39c0,20.2,0,20.6,4.7,23.3c10.8,6.1,18-1.4,20.6-21.6c3.2-26.3-12.4-57-36.1-71.1
	C235.6,38.3,209.1,34.7,196.8,40L196.8,40z M108.1,73.5C87.9,80.7,68.4,94.6,47.5,117c-49.6,52.7-46.3,102.8,8.3,129.5
	c56.8,27.8,133.3,18.6,174.9-21.1c31.2-29.6,27.4-66.7-8.1-79.3c-6.3-2.2-8.3-3.8-7.4-5.8c3.2-7.9,4.3-17.1,2.5-22.5
	c-5.6-17.1-26-21.1-56.3-10.8l-12.1,4.1l1.1-12.1c1.3-14.2-1.8-22-10.3-26.3C133.1,69,119.6,69.4,108.1,73.5L108.1,73.5z
	 M158.2,143.3c26.9,7.4,43.3,23.6,43.3,42.9c0,21.5-19.1,40.8-50.1,51c-16.6,5.4-47.4,6.5-62.6,2.3c-28.7-8.1-44.9-24-44.9-44.4
	c0-11.2,4.9-20.9,15.5-30.8c9.9-9.4,17.5-13.9,32.1-18.8C113.5,138.2,137.1,137.3,158.2,143.3L158.2,143.3z M101.4,160.8
	c-18.2,8.5-28,21.5-28,37.7c0,14.8,6.5,24.9,20.7,32.5c11,6,31.2,5.4,43.5-0.9c15.7-8.3,26-23.6,26-38.6
	c-0.2-12.3-11-26.9-23.8-32.1C129.5,155,112.2,155.7,101.4,160.8L101.4,160.8z M114.6,194.7c1.3,1.3,2.2,4.3,2.2,7
	c0,9-15.1,16.4-21.3,10.3c-3.4-3.4-2.5-11.9,1.4-15.9C100.9,192.2,111.1,191.3,114.6,194.7L114.6,194.7z M199.9,76.9
	c-8.3,8.3-2.7,18.2,10.5,18.2c11.4,0,16.4,5.8,16.4,18.8c0,8.1,0.7,10.5,4,12.6c9.7,6.9,17.7-0.7,17.7-16.8
	c0-19.7-14.1-34.4-34.1-35.9C205.3,73.1,203.1,73.7,199.9,76.9L199.9,76.9z"/>
</svg>
