<?xml version="1.0" encoding="utf-8"?>
<!-- Generator: Adobe Illustrator 17.1.0, SVG Export Plug-In . SVG Version: 6.00 Build 0)  -->
<!DOCTYPE svg PUBLIC "-//W3C//DTD SVG 1.1//EN" "http://www.w3.org/Graphics/SVG/1.1/DTD/svg11.dtd">
<svg version="1.1" id="Layer_1" xmlns="http://www.w3.org/2000/svg" xmlns:xlink="http://www.w3.org/1999/xlink" x="0px" y="0px"
	 viewBox="0 0 300 300" enable-background="new 0 0 300 300" xml:space="preserve">
<path fill="#FFFFFF" d="M159.2,163.9c0,0-0.1-20.1-6.5-20.1h-44.6c1.5-23.1,1.9-44,1.9-62.6h43.6c0,0,1.7-19.2-7.3-19H70.9
	c3-11.2,6.7-22.7,11.2-34.7c0,0-20.5,0-27.5,18.4c-2.9,7.6-11.3,36.8-26.2,66.6c5-0.5,21.6-1,31.4-18.9c1.8-5,2.1-5.7,4.4-12.4h24.6
	c0,8.9,0.1,21.3-0.6,36.2c0,14.2-0.4,20.8-0.8,26.4H42.8c-10,0-13.3,20.1-13.3,20.1h55.9c-3.7,42.5-23.9,77.9-60.4,106.2
	c6,6,35.6-0.2,43.5-8.1c0,0,19.6-17.8,30.3-59c14.1,16.4,26.1,30.9,35.8,43.6c4.5,6,10.1,12.3,10.1,12.3s6.9-23.5-0.9-34.6
	c-6.5-7.6-24.1-28.3-31.5-35.8L100,198.6c3.7-11.9,6-23.5,6.7-34.7L159.2,163.9L159.2,163.9z M170.4,244.3l20,0l6.4,22.3
	c0,0,30.6-22.3,36-22.3c5.4,0,21,0,21,0h21.2V59H170.4L170.4,244.3L170.4,244.3z M191.6,79.1h63.3v145.1h-24.3L206,239.7l-4-15.4
	l-10.3,0L191.6,79.1L191.6,79.1z"/>
</svg>
